<?xml version="1.0" standalone="no"?>
<!DOCTYPE svg PUBLIC "-//W3C//DTD SVG 20010904//EN"
 "http://www.w3.org/TR/2001/REC-SVG-20010904/DTD/svg10.dtd">
<svg version="1.0" xmlns="http://www.w3.org/2000/svg"
 width="1280.000000pt" height="1280.000000pt" viewBox="0 0 1280.000000 1280.000000"
 preserveAspectRatio="xMidYMid meet">

<g transform="translate(0.000000,1280.000000) scale(0.100000,-0.100000)"
fill="#000000" stroke="none">
<path d="M6200 12284 c-742 -27 -1488 -197 -2163 -493 -353 -155 -789 -403
-1042 -590 -298 -222 -386 -294 -598 -489 -495 -457 -909 -1002 -1227 -1615
-334 -646 -545 -1350 -620 -2062 -25 -244 -30 -350 -30 -635 0 -285 5 -387 30
-635 108 -1055 527 -2097 1184 -2950 321 -417 719 -812 1111 -1104 55 -41 116
-86 135 -101 19 -15 89 -63 155 -107 739 -492 1576 -811 2450 -932 584 -82
1250 -71 1818 29 31 5 81 14 111 19 30 6 83 16 118 25 35 8 106 24 158 36 491
113 1068 344 1541 616 138 79 386 238 474 303 300 223 387 294 603 494 492
454 905 999 1222 1610 278 539 462 1086 569 1697 32 183 48 310 71 581 13 149
13 689 0 838 -48 557 -130 971 -284 1435 -311 936 -863 1794 -1583 2458 -212
195 -300 267 -598 489 -27 20 -115 80 -195 132 -719 469 -1543 778 -2395 896
-289 41 -736 65 -1015 55z m715 -34 c589 -60 1047 -164 1559 -357 1413 -530
2603 -1630 3236 -2991 240 -515 378 -955 476 -1512 26 -149 32 -196 61 -455
20 -185 23 -847 5 -1025 -49 -477 -122 -851 -240 -1235 -334 -1085 -977 -2051
-1849 -2780 -617 -515 -1329 -898 -2088 -1123 -389 -115 -705 -175 -1175 -224
-152 -16 -848 -16 -1000 0 -423 44 -732 100 -1065 193 -60 16 -123 34 -140 38
-209 56 -645 231 -918 367 -1220 611 -2171 1608 -2747 2879 -251 555 -409
1173 -482 1885 -15 150 -15 818 0 975 45 460 121 854 240 1240 472 1532 1556
2811 2989 3529 716 358 1520 570 2318 610 127 7 718 -3 820 -14z"/>
<path d="M7015 8249 c-367 -42 -645 -126 -945 -282 -756 -394 -1198 -979
-1345 -1777 -20 -110 -45 -337 -45 -417 l0 -63 459 0 458 0 6 93 c21 332 111
607 282 862 219 329 536 548 933 646 263 65 647 41 906 -56 476 -178 861 -614
986 -1116 24 -97 50 -287 50 -365 l0 -54 462 0 461 0 -6 98 c-16 229 -35 366
-79 542 -134 550 -435 1005 -892 1350 -344 258 -782 455 -1141 511 -231 36
-404 45 -550 28z"/>
<path d="M3003 8102 l-23 -3 0 -1190 0 -1189 445 0 445 0 0 1190 0 1190 -422
2 c-233 2 -433 2 -445 0z"/>
<path d="M7215 6261 c-48 -12 -87 -37 -126 -78 -57 -59 -71 -95 -71 -182 0
-88 13 -124 71 -184 59 -63 104 -82 196 -82 96 0 142 21 202 89 45 51 63 101
63 176 0 29 -5 70 -12 92 -15 50 -79 123 -131 150 -45 22 -142 32 -192 19z"/>
<path d="M3449 5390 c-87 -26 -114 -81 -114 -235 0 -93 3 -115 21 -145 30 -52
78 -80 136 -80 68 0 112 21 144 70 23 35 28 55 32 127 6 111 -10 181 -49 221
-44 45 -109 61 -170 42z m75 -101 c31 -14 46 -56 46 -126 0 -99 -43 -153 -99
-124 -26 14 -36 50 -36 126 1 93 12 118 62 134 1 1 13 -4 27 -10z"/>
<path d="M4505 5385 c-79 -29 -109 -100 -103 -242 6 -153 50 -208 168 -208
120 0 163 56 168 218 4 89 1 103 -22 150 -14 30 -38 60 -55 70 -42 25 -108 30
-156 12z m89 -97 c63 -28 60 -233 -3 -253 -55 -17 -91 31 -91 123 0 88 17 125
67 141 1 1 14 -4 27 -11z"/>
<path d="M2997 5383 c-4 -3 -7 -26 -7 -49 0 -39 2 -43 28 -46 l27 -3 3 -177 2
-178 55 0 55 0 0 230 0 230 -78 0 c-43 0 -82 -3 -85 -7z"/>
<path d="M4070 5341 c0 -47 2 -50 28 -53 l27 -3 3 -177 2 -178 55 0 55 0 0
230 0 230 -85 0 -85 0 0 -49z"/>
<path d="M6292 5370 c-91 -22 -151 -99 -160 -206 -9 -117 58 -211 167 -235 91
-19 186 19 232 95 30 49 26 56 -37 56 -48 0 -59 -4 -75 -25 -41 -51 -131 -38
-164 25 -29 56 -10 156 33 179 38 20 101 13 128 -14 21 -21 35 -25 80 -25 53
0 55 1 49 23 -18 57 -73 108 -140 126 -45 12 -65 12 -113 1z"/>
<path d="M8510 5364 c-77 -27 -120 -79 -140 -169 -26 -116 47 -239 157 -265
106 -24 212 24 248 113 l15 37 -56 0 c-48 0 -61 -4 -91 -30 -37 -33 -53 -36
-102 -19 -41 15 -61 54 -61 124 0 50 4 60 30 87 28 28 35 30 81 26 36 -4 54
-11 65 -27 13 -17 25 -21 74 -21 l59 0 -10 29 c-16 46 -77 100 -133 116 -61
18 -79 18 -136 -1z"/>
<path d="M9477 5366 c-69 -25 -97 -66 -91 -131 5 -58 32 -86 110 -117 38 -14
77 -31 86 -37 47 -29 -5 -86 -57 -63 -14 6 -25 18 -25 27 0 12 -13 15 -60 15
-35 0 -60 -4 -60 -10 0 -25 41 -86 67 -102 71 -41 178 -31 229 23 23 24 28 38
28 83 1 68 -23 97 -103 127 -78 29 -101 45 -101 74 0 42 72 46 85 4 5 -16 16
-19 61 -19 48 0 54 2 54 21 0 30 -28 74 -61 93 -40 23 -116 29 -162 12z"/>
<path d="M5235 5358 c-26 -68 -145 -414 -145 -420 0 -4 24 -8 54 -8 53 0 55 1
66 35 l12 36 81 -3 81 -3 10 -32 c9 -32 10 -33 67 -33 l58 0 -45 128 c-25 70
-58 164 -74 210 -16 45 -32 87 -35 92 -9 15 -125 13 -130 -2z m87 -175 c34
-99 36 -93 -22 -93 -38 0 -51 3 -47 13 2 6 13 38 23 69 11 32 21 58 25 58 3 0
12 -21 21 -47z"/>
<path d="M5660 5150 l0 -221 53 3 52 3 -2 78 c-2 68 0 78 14 75 9 -2 35 -38
57 -80 l41 -78 58 0 c31 0 57 3 57 8 0 4 -20 43 -45 86 -25 43 -44 80 -43 80
2 1 16 8 31 16 78 39 80 168 4 224 -25 18 -45 21 -153 24 l-124 4 0 -222z
m204 117 c11 -8 19 -26 19 -42 0 -36 -26 -55 -75 -55 -36 0 -38 2 -38 33 0 17
-3 42 -6 55 -6 20 -3 22 38 22 24 0 52 -6 62 -13z"/>
<path d="M6700 5150 l0 -220 55 0 54 0 3 88 3 87 80 0 80 0 3 -87 3 -88 49 0
50 0 0 220 0 220 -50 0 -50 0 0 -85 0 -85 -85 0 -85 0 0 85 0 85 -55 0 -55 0
0 -220z"/>
<path d="M7240 5151 l0 -221 55 0 55 0 -2 218 -3 217 -52 3 -53 3 0 -220z"/>
<path d="M7490 5325 l0 -45 55 0 55 0 0 -175 0 -175 55 0 55 0 0 175 0 174 58
3 57 3 0 40 0 40 -167 3 -168 2 0 -45z"/>
<path d="M7960 5150 l0 -220 135 0 135 0 0 40 c0 25 -5 40 -12 41 -7 1 -42 2
-78 2 l-65 2 -3 48 -3 47 70 0 71 0 0 40 0 40 -70 0 -70 0 0 45 0 45 80 0 80
0 0 45 0 45 -135 0 -135 0 0 -220z"/>
<path d="M8914 5356 c-3 -8 -4 -27 -2 -43 3 -27 6 -28 61 -31 l57 -3 0 -174 0
-175 55 0 55 0 0 175 0 175 55 0 55 0 0 45 0 45 -165 0 c-134 0 -167 -3 -171
-14z"/>
<path d="M3830 5020 c-11 -11 -20 -29 -20 -40 0 -28 35 -60 65 -60 30 0 65 32
65 60 0 28 -35 60 -65 60 -14 0 -34 -9 -45 -20z"/>
</g>
</svg>
