<svg width="1180" height="1180" viewBox="0 0 1180 1180" fill="none" xmlns="http://www.w3.org/2000/svg">
<g clip-path="url(#clip0_74_4878)">
<path d="M918.8 661C888 661 857.9 661 827.1 661C825.9 603 802 556.8 754.2 523.5C725.9 503.8 694 496.5 660.1 498.1C581.3 501.8 512.9 564 510.5 661.4C480.1 661.4 449.8 661.4 418.4 661.4C418.9 654.6 419.2 647.9 419.8 641.2C422.9 606.6 431.3 573.4 447.3 542.4C466 506.2 492.9 477.5 526.5 454.8C548.2 440.1 571.4 428.2 596.3 419.8C615.1 413.4 634.4 409.5 654.3 408.1C711.5 404.1 762.4 422.1 809.3 453.3C839.1 473.1 863.9 497.8 882.6 528.4C899.3 555.7 909.9 585.3 914.8 616.8C916.8 629.6 917.6 642.6 918.8 655.4C919 657.2 918.8 658.8 918.8 661Z" fill="black"/>
<path d="M337.7 660.6C308.1 660.6 278.9 660.6 249.2 660.6C249.2 581.4 249.2 502.3 249.2 422.9C278.6 422.9 308 422.9 337.7 422.9C337.7 502.3 337.7 581.3 337.7 660.6Z" fill="black"/>
<path d="M706.2 632.8C706.3 648.2 694.8 659.8 679.8 660.1C665.8 660.4 652.3 649.3 652.1 633.3C651.9 618 664.1 606.1 679.4 606.1C694.7 606 706.1 617.4 706.2 632.8Z" fill="black"/>
<path d="M550.4 739.7C539 740.8 539 740.8 534 731.6C532.5 728.8 531 726.2 529.4 723.4C528.8 723.6 528.3 723.8 527.7 724C527.7 729.1 527.7 734.2 527.7 739.7C523.9 739.7 520.7 739.7 517.1 739.7C517.1 725.4 517.1 711 517.1 696.2C524.3 696.2 531.5 695.7 538.5 696.3C545 696.8 549.1 701.3 550.2 707.5C551.3 713.5 548.7 718.6 542.9 722C542.4 722.3 541.8 722.6 541.1 723.1C544.1 728.6 547.1 733.9 550.4 739.7ZM528 717C532 715.7 535.6 715 538.5 713.2C539.4 712.7 539.1 707.6 538.2 707.2C534.9 705.7 531.1 705.3 527.3 704.4C527.5 708.9 527.7 712 528 717Z" fill="black"/>
<path d="M658.6 739.8C655.3 739.8 652.3 739.8 648.7 739.8C648.7 734 648.7 728.4 648.7 722.1C643.6 722.1 639 721.9 634.4 722.3C633.5 722.4 632.2 724.8 632.1 726.1C631.8 730.5 632 735 632 739.7C628.3 739.7 625.1 739.7 621.5 739.7C621.5 725.2 621.5 710.8 621.5 696.2C624.9 696.2 628 696.2 632 696.2C632 700.4 632.2 704.7 631.9 708.9C631.7 711.9 632.7 713.2 635.8 713C639.8 712.8 643.8 713 648.4 713C648.4 707.4 648.4 702 648.4 696.3C652.1 696.3 655.2 696.3 658.6 696.3C658.6 710.8 658.6 725.2 658.6 739.8Z" fill="black"/>
<path d="M319.1 718.4C317.7 722.7 316.6 728.7 313.9 733.8C310.2 740.7 303.1 741 296.3 739.7C289.8 738.4 285.6 733.9 285 727.4C284.3 720.4 284.3 713.2 285 706.2C285.7 698.8 292.1 693.8 299.9 693.2C307.4 692.6 314.4 697.1 316.4 704.2C317.6 708.1 318 712.4 319.1 718.4ZM308.3 716.8C307.8 713.7 307.8 710.4 306.5 707.7C305.6 705.8 302.9 703.7 301 703.6C299.1 703.6 295.7 705.9 295.5 707.4C294.9 713.6 295 719.8 295.6 726C295.8 727.5 299.2 729.7 301.1 729.6C303 729.5 305.6 727.4 306.5 725.5C307.7 723 307.7 719.9 308.3 716.8Z" fill="black"/>
<path d="M425.5 716C424.9 720.5 424.9 723.9 424 727.1C421.7 736.1 416.5 740.2 407.7 740.2C398.9 740.2 393.1 736.2 391.8 727C390.8 719.5 391.2 711.4 392.6 703.9C394 696.8 400.2 693.2 407.5 693.1C414.7 693 420.5 696.6 422.8 703.6C424.4 707.8 424.9 712.5 425.5 716ZM400.5 716.2C401 719.4 401.2 722.2 401.9 724.9C402.6 727.9 404.7 730.5 407.8 729.7C410.1 729.1 413.4 726.8 413.6 724.9C414.3 719.3 414.1 713.4 413.4 707.7C413.2 706 410 703.7 408.1 703.6C406.2 703.5 403.4 705.5 402.5 707.3C401.2 710.1 401.1 713.4 400.5 716.2Z" fill="black"/>
<path d="M459.3 740.1C463.8 727.4 467.9 715.7 472 704C472.1 703.7 472.3 703.4 472.4 703.1C474.9 696.4 478.9 694.2 485.7 696.2C486.7 696.5 487.8 697.8 488.2 698.9C493.1 712.5 497.9 726.1 502.9 740.2C500.1 740.2 497.7 740 495.5 740.3C492.4 740.7 490.7 739.4 490.2 736.5C489.7 733.6 488.1 732.7 485.3 732.9C483 733.1 480.6 733.2 478.3 732.9C474.7 732.5 472.3 733.3 471.5 737.4C471.3 738.5 469.2 739.8 467.8 740.1C465.3 740.4 462.7 740.1 459.3 740.1ZM481.6 710.2C481.2 710.2 480.8 710.2 480.3 710.3C478.9 714.7 477.5 719.1 476 723.7C479.6 723.7 482.5 723.7 486 723.7C484.5 718.9 483.1 714.6 481.6 710.2Z" fill="black"/>
<path d="M829 711C824.1 710.7 819.3 712.6 815 707.6C811.3 703.3 802.8 705.7 800 710.9C795.6 718.9 799.4 729.3 807.4 730.5C809.7 730.8 813.3 730.5 814.3 729C818.3 723.5 823.6 725.3 828.7 725C828.8 733.8 819.2 741.1 809 740.7C796.5 740.3 787.9 733.6 787.3 718.9C786.8 706.5 793.2 696.9 807.8 695.2C817.9 694.1 827.7 701.5 829 711Z" fill="black"/>
<path d="M605.7 711.1C600.4 710.8 595.7 712.4 591.2 707.6C587 703 578.3 706.1 575.9 712C572.7 719.8 575.6 728.4 582.5 730.1C585.1 730.7 589.5 730.5 590.8 728.9C595 723.5 600.2 725.3 605.3 725.1C604.7 734.9 594.9 741 585.4 740.7C573.2 740.4 565 733.2 563.8 720.3C562.6 707.1 570.1 697.5 582.9 695.4C593.2 693.8 603.1 700.3 605.7 711.1Z" fill="black"/>
<path d="M920.7 708.9C915.9 708.4 910.9 710.9 907.6 705.2C907.2 704.4 902.7 704.6 901.6 705.8C899.7 707.9 900.7 710.6 903.5 711.8C905.9 712.9 908.4 713.8 910.9 714.7C919.4 717.8 923.1 722.6 921.8 729.1C920.4 736.5 914 741.1 905.5 740.9C896 740.7 890.1 735.8 889.3 726.8C892.3 726.8 895.2 726.6 898.1 726.9C899.2 727 900.1 728.6 901.2 729.2C903.1 730.2 905.2 731.3 907.2 731.4C908.3 731.5 910.5 728.9 910.3 728.4C909.4 726.5 908.1 724.4 906.3 723.4C903.3 721.7 899.8 721 896.6 719.5C891.1 717 888.6 712.8 889 707.2C889.4 702 892.8 697.1 898.3 696.2C902.7 695.4 907.6 695.4 912 696.4C917.9 697.8 920.9 702.6 920.7 708.9Z" fill="black"/>
<path d="M747.3 696.2C756.2 696.2 764.7 696.2 773.5 696.2C773.5 699 773.5 701.5 773.5 704.8C768.5 704.8 763.4 704.8 758.6 704.8C756.3 713.1 756.8 713.8 764.4 713.9C766.7 713.9 769 713.9 771.5 713.9C771.5 716.8 771.5 719.2 771.5 722.1C767 722.1 762.7 722.1 758 722.1C757.8 724.3 757.8 726.1 757.6 727.8C757.2 730.6 758.3 731.8 761.2 731.8C763.2 731.7 765.2 731.9 767.2 731.9C774.6 731.8 774.6 731.7 773.4 739.9C764.9 739.9 756.3 739.9 747.4 739.9C747.3 725.4 747.3 711 747.3 696.2Z" fill="black"/>
<path d="M700.2 696.2C711.2 696.2 722 696.2 733.1 696.2C733.1 699 733.1 701.7 733.1 704.9C729.4 704.9 725.9 704.9 722 704.9C722 716.8 722 728.1 722 739.8C718.2 739.8 714.9 739.8 711.2 739.8C711.2 728.4 711.2 717 711.2 705C707.3 705 703.9 705 700.2 705C700.2 701.9 700.2 699.4 700.2 696.2Z" fill="black"/>
<path d="M876 696.3C876 699.2 876 701.7 876 704.8C872.3 704.8 868.9 704.8 864.8 704.8C864.8 716.6 864.8 728 864.8 739.8C861 739.8 857.8 739.8 854 739.8C854 728.5 854 717.1 854 705.2C850 705.2 846.6 705.2 842.8 705.2C842.8 702 842.8 699.3 842.8 696.4C853.9 696.3 864.8 696.3 876 696.3Z" fill="black"/>
<path d="M357.8 703.9C357.8 700.8 357.8 698 357.8 694.8C363.3 694.8 368.7 694.8 374.4 694.8C374.4 709.7 374.4 724.7 374.4 739.9C370.9 739.9 367.5 739.9 363.5 739.9C363.5 729.9 363.5 720.2 363.5 710.5C363.6 704.7 363.6 704.7 357.8 703.9Z" fill="black"/>
<path d="M266.9 694.6C266.9 709.7 266.9 724.5 266.9 739.7C263.5 739.7 260.1 739.7 256.2 739.7C256.2 728.3 256.2 716.7 256.2 705C254 704.5 252.2 704.2 250.3 703.8C250.3 700.8 250.3 697.9 250.3 694.6C255.7 694.6 261 694.6 266.9 694.6Z" fill="black"/>
<path d="M675.1 696.2C678.7 696.2 681.8 696.2 685.3 696.2C685.3 710.8 685.3 725.1 685.3 739.8C681.9 739.8 678.6 739.8 675.1 739.8C675.1 725.4 675.1 711 675.1 696.2Z" fill="black"/>
<path d="M344.8 735C344.1 739.3 341.5 741.2 337.8 740.9C334.3 740.6 331.9 738.4 332.2 734.6C332.6 730.7 335.3 728.8 339.1 729.1C342.8 729.4 344.7 731.7 344.8 735Z" fill="black"/>
<path d="M589.6 1178.7C914.951 1178.7 1178.7 914.951 1178.7 589.6C1178.7 264.249 914.951 0.5 589.6 0.5C264.249 0.5 0.5 264.249 0.5 589.6C0.5 914.951 264.249 1178.7 589.6 1178.7Z" stroke="black" stroke-miterlimit="10"/>
</g>
<defs>
<clipPath id="clip0_74_4878">
<rect width="1179.2" height="1179.2" fill="white"/>
</clipPath>
</defs>
</svg>
